<?xml version="1.0" encoding="UTF-8" standalone="no"?>
<svg width="36px" height="36px" viewBox="0 0 36 36" version="1.1" xmlns="http://www.w3.org/2000/svg" xmlns:xlink="http://www.w3.org/1999/xlink">
    <!-- Generator: Sketch 3.6.1 (26313) - http://www.bohemiancoding.com/sketch -->
    <title>back arrow green</title>
    <desc>Created with Sketch.</desc>
    <defs></defs>
    <g id="Visual-Design" stroke="none" stroke-width="1" fill="none" fill-rule="evenodd">
        <g id="Vote-Page---Green" transform="translate(-31.000000, -32.000000)">
            <g id="back-arrow-green" transform="translate(33.000000, 34.000000)">
                <path d="M15.8351088,31.4102564 C7.08960445,31.4102564 0,24.3788462 0,15.7051282 C0,7.03141026 7.08960445,0 15.8351088,0 C24.5806132,0 31.6702177,7.03141026 31.6702177,15.7051282 C31.6702177,24.3788462 24.5806132,31.4102564 15.8351088,31.4102564 L15.8351088,31.4102564 Z" id="Shape" stroke="#568B2A" stroke-width="2"></path>
                <path d="M22.4033462,13.4801717 C22.4033462,12.6153154 21.6963397,11.9141123 20.8243256,11.9141123 L13.7139957,11.9141123 L13.7139957,8.77220556 C13.4131923,7.49665016 12.0086534,8.19237206 12.017338,8.16535753 L7.35172684,12.9939102 C6.88275772,13.4786056 6.88275772,14.2647675 7.35172684,14.7498544 L12.017338,19.5784071 C12.0193118,19.5737089 13.4131923,20.2377181 13.7139957,18.9715591 L13.7139957,15.8292608 L18.4557947,15.8292608 L18.4557947,21.7019837 C18.4557947,22.56684 19.1628011,23.2680431 20.0348153,23.2680431 L20.8243256,23.2680431 C21.6963397,23.2680431 22.4033462,22.56684 22.4033462,21.7019837 L22.4033462,13.4801717 L22.4033462,13.4801717 Z" id="Path" fill="#568B2A"></path>
            </g>
        </g>
    </g>
</svg>