<?xml version="1.0" encoding="UTF-8" standalone="no"?>
<svg width="20px" height="21px" viewBox="0 0 20 21" version="1.1" xmlns="http://www.w3.org/2000/svg" xmlns:xlink="http://www.w3.org/1999/xlink">
    <!-- Generator: Sketch 3.6.1 (26313) - http://www.bohemiancoding.com/sketch -->
    <title>chat icon header</title>
    <desc>Created with Sketch.</desc>
    <defs></defs>
    <g id="Visual-Design" stroke="none" stroke-width="1" fill="none" fill-rule="evenodd">
        <g id="Home-Page" transform="translate(-268.000000, -16.000000)">
            <g id="chat-icon-header" transform="translate(270.000000, 18.000000)">
                <path d="M15.9017165,7.66059067 C15.9017165,3.42991603 12.3427324,0 7.9511684,0 C3.55939766,-1.06151718e-15 0,3.42991603 0,7.66059067 C0,11.8002338 3.40826385,15.1699933 7.66874872,15.3132136 C8.28031344,15.8868914 10.2601457,17.5033481 12.5013092,16.845013 C12.5013092,16.845013 13.1682827,16.669125 12.8126738,16.1436521 C12.5877304,15.8111978 12.139291,15.060636 11.8312344,14.3467258 C14.2592993,13.0360314 15.9017165,10.5327644 15.9017165,7.66059067 L15.9017165,7.66059067 Z" id="Shape" stroke="#26c6da" stroke-width="1.5"></path>
                <path d="M10.8855626,6.85465303 L5.16108525,6.85465303 C4.57474396,6.85465303 4.10087433,6.39690594 4.10087433,5.83298863 C4.10087433,5.26867292 4.57474396,4.81192181 5.16108525,4.81192181 L10.8855626,4.81192181 C11.4706634,4.81192181 11.9455668,5.26867292 11.9455668,5.83298863 C11.9455668,6.39690594 11.4706634,6.85465303 10.8855626,6.85465303 L10.8855626,6.85465303 Z" id="Path" fill="#26c6da"></path>
                <path d="M9.51026562,10.2256077 L4.94585913,10.2256077 C4.47963923,10.2256077 4.10087433,9.76766145 4.10087433,9.20254897 C4.10087433,8.63942843 4.47963923,8.18227893 4.94585913,8.18227893 L9.51026562,8.18227893 C9.97689901,8.18227893 10.3552504,8.63922924 10.3552504,9.20254897 C10.3552504,9.76766145 9.97689901,10.2256077 9.51026562,10.2256077 L9.51026562,10.2256077 Z" id="Path" fill="#26c6da"></path>
            </g>
        </g>
    </g>
</svg>