<?xml version="1.0" encoding="UTF-8" standalone="no"?>
<svg width="36px" height="39px" viewBox="0 0 36 39" version="1.1" xmlns="http://www.w3.org/2000/svg" xmlns:xlink="http://www.w3.org/1999/xlink">
    <!-- Generator: Sketch 3.6.1 (26313) - http://www.bohemiancoding.com/sketch -->
    <title>comment icon red</title>
    <desc>Created with Sketch.</desc>
    <defs></defs>
    <g id="Visual-Design" stroke="none" stroke-width="1" fill="none" fill-rule="evenodd">
        <g id="Vote-Page---Red" transform="translate(-253.000000, -32.000000)">
            <g id="comment-icon-red" transform="translate(255.000000, 34.000000)">
                <path d="M31.8034331,15.7718043 C31.8034331,7.06159183 24.6854648,0 15.9023368,0 C7.11879532,-2.18547656e-15 0,7.06159183 0,15.7718043 C0,24.294599 6.81652769,31.2323392 15.3374974,31.5272045 C16.5606269,32.7083058 20.5202914,36.036305 25.0026184,34.6809092 C25.0026184,34.6809092 26.3365655,34.3187868 25.6253475,33.2369307 C25.1754609,32.5524661 24.278582,31.0071918 23.6624687,29.5373767 C28.5185986,26.8388882 31.8034331,21.6851032 31.8034331,15.7718043 L31.8034331,15.7718043 Z" id="Shape" stroke="#C5322F" stroke-width="2"></path>
                <path d="M21.7711252,14.1125209 L10.3221705,14.1125209 C9.14948792,14.1125209 8.20174867,13.1701005 8.20174867,12.0090942 C8.20174867,10.8472678 9.14948792,9.90689784 10.3221705,9.90689784 L21.7711252,9.90689784 C22.9413268,9.90689784 23.8911336,10.8472678 23.8911336,12.0090942 C23.8911336,13.1701005 22.9413268,14.1125209 21.7711252,14.1125209 L21.7711252,14.1125209 Z" id="Path" fill="#C5322F"></path>
                <path d="M19.0205312,21.0527218 L9.89171826,21.0527218 C8.95927847,21.0527218 8.20174867,20.1098912 8.20174867,18.9464244 C8.20174867,17.7870585 8.95927847,16.8458684 9.89171826,16.8458684 L19.0205312,16.8458684 C19.953798,16.8458684 20.7105008,17.7866484 20.7105008,18.9464244 C20.7105008,20.1098912 19.953798,21.0527218 19.0205312,21.0527218 L19.0205312,21.0527218 Z" id="Path" fill="#C5322F"></path>
            </g>
        </g>
    </g>
</svg>