<?xml version="1.0" encoding="UTF-8" standalone="no"?>
<svg width="124px" height="19px" viewBox="0 0 124 19" version="1.1" xmlns="http://www.w3.org/2000/svg" xmlns:xlink="http://www.w3.org/1999/xlink">
    <!-- Generator: Sketch 3.6.1 (26313) - http://www.bohemiancoding.com/sketch -->
    <title>SteamVote Logo</title>
    <desc>Created with Sketch.</desc>
    <defs></defs>
    <g id="Visual-Design" stroke="none" stroke-width="1" fill="none" fill-rule="evenodd">
        <g id="Home-Page" transform="translate(-33.000000, -16.000000)">
            <g id="SteamVote-Logo" transform="translate(33.000000, 16.000000)">
                <path d="M13.0362092,3.6706383 C13.0609544,4.11660089 12.9046726,4.55372159 12.6026144,4.88340426 C12.3233278,5.17576376 11.933485,5.33719659 11.5287582,5.32808511 C11.0635532,5.31900554 10.606951,5.20132179 10.1955556,4.98446809 C10.288349,4.72464272 10.3389643,4.45170398 10.3454902,4.17595745 C10.3090522,3.550842 9.97847752,2.97972193 9.45398693,2.63574468 C8.7296932,2.12744813 7.85390407,1.87945263 6.96993464,1.93234043 C6.07099988,1.88933622 5.17993496,2.11755453 4.41294118,2.58723404 C3.82004194,2.93439884 3.45375418,3.56695364 3.44849673,4.25276596 C3.44362499,4.91565408 3.71692454,5.55035533 4.20222222,6.00319149 C4.75000484,6.51793179 5.38714621,6.92888707 6.08248366,7.21595745 C6.83350763,7.54475177 7.64396514,7.9193617 8.51385621,8.33978723 C9.38374728,8.76021277 10.1942048,9.17120567 10.9452288,9.57276596 C11.6745429,9.9576593 12.3150286,10.4905742 12.8254902,11.137234 C13.3136871,11.737286 13.5798516,12.486752 13.5792157,13.2595745 C13.5834473,14.7489599 12.8472777,16.1435649 11.6138562,16.982766 C10.2413272,17.9891926 8.5713731,18.5098886 6.86862745,18.4623404 C5.24647063,18.5232188 3.64112402,18.1161792 2.24496732,17.29 C1.01847495,16.5084397 0.405228758,15.5180142 0.405228758,14.3187234 C0.382255261,13.8007629 0.574283797,13.2962537 0.936078431,12.9240426 C1.29619566,12.5685908 1.78730115,12.3770079 2.29359477,12.3944681 C2.83271892,12.3884134 3.34602264,12.6244111 3.69163399,13.037234 C3.30110709,13.3928056 3.09259353,13.9054083 3.12431373,14.4319149 C3.16022781,15.0923039 3.5399299,15.6857926 4.12522876,15.996383 C4.94993173,16.4821939 5.90007698,16.7142374 6.85647059,16.6634043 C7.89676422,16.6969996 8.92143168,16.4043348 9.78627451,15.8265957 C10.596732,15.2687234 11.0019608,14.6151773 11.0019608,13.8659574 C10.987427,13.0889387 10.5962154,12.3671617 9.9524183,11.9295745 C9.17656278,11.3442631 8.32453152,10.8669118 7.41973856,10.5106383 C6.43098039,10.109078 5.43816993,9.67787234 4.44130719,9.21702128 C3.48519268,8.78580542 2.62120168,8.17505317 1.89647059,7.41808511 C1.2235404,6.74381048 0.846105379,5.83083826 0.846928105,4.8793617 C0.839657902,3.50010438 1.53779871,2.21233226 2.69882353,1.46340426 C3.99989477,0.56477272 5.55417649,0.103148375 7.13607843,0.145531915 C8.6207255,0.0861986173 10.0926188,0.440340123 11.3869281,1.16829787 C12.4864488,1.85014184 13.0362092,2.68425532 13.0362092,3.6706383 L13.0362092,3.6706383 Z" id="Shape" fill="#F5F5F5"></path>
                <path d="M19.3294118,7.41808511 L19.3294118,14.8887234 C19.288052,15.3375827 19.4056233,15.7867135 19.6616993,16.1580851 C19.9538357,16.4401636 20.3551273,16.5804999 20.7598693,16.5421277 C21.8163025,16.5197431 22.8170693,16.0651445 23.5275817,15.2848936 C23.8895861,15.3495745 24.0705882,15.6460284 24.0705882,16.1742553 C24.0705882,16.7024823 23.6950763,17.2158865 22.9440523,17.7144681 C22.1182582,18.2370361 21.1537118,18.4990781 20.1763399,18.466383 C19.2495632,18.525162 18.3364187,18.2205447 17.6315033,17.6174468 C17.0290632,17.0514894 16.7278431,16.2092908 16.7278431,15.0908511 L16.7278431,7.41 C16.2126684,7.43353007 15.7005698,7.3190732 15.2447059,7.07851064 C14.9531312,6.91349154 14.7734389,6.60442143 14.7746405,6.27 C14.7617737,5.96889059 14.9019535,5.6816043 15.147451,5.50595745 C15.580896,5.56915694 16.0182918,5.60157886 16.4563399,5.60297872 L16.7278431,5.60297872 L16.7278431,3.98595745 C16.7805281,3.48262629 16.5001087,3.00329579 16.034902,2.80148936 C16.3667902,2.26257106 16.9569746,1.93598955 17.5909804,1.94042553 C18.7445316,1.94042553 19.3213072,2.63035461 19.3213072,4.01021277 L19.3213072,5.62723404 L23.3249673,5.62723404 C23.4179047,5.75741905 23.47008,5.91216225 23.474902,6.07191489 C23.474902,6.97744681 22.188976,7.42886525 19.6171242,7.42617021 L19.3294118,7.42617021 L19.3294118,7.41808511 Z" id="Shape" fill="#F5F5F5"></path>
                <path d="M28.9657516,15.4829787 C29.713787,16.2289691 30.7466424,16.6190394 31.8023529,16.5542553 C33.0283831,16.5617765 34.2024885,16.0610522 35.044183,15.1717021 C35.3158467,15.3269272 35.4735982,15.6243612 35.4494118,15.9357447 C35.4494118,16.5448227 35.0293246,17.1202128 34.1891503,17.6619149 C33.3012233,18.2156829 32.2697048,18.4968416 31.2228758,18.4704255 C29.6334092,18.5421259 28.0825153,17.9690466 26.9233987,16.8817021 C25.8427887,15.8225532 25.3024837,14.3146809 25.3024837,12.3580851 C25.248623,10.5416891 25.8806452,8.77137249 27.0733333,7.39787234 C28.1053784,6.12380068 29.6578645,5.3813478 31.2998693,5.37659574 C32.4849574,5.33454764 33.6302724,5.8063159 34.4403922,6.67021277 C35.2175813,7.45534267 35.6542124,8.51380759 35.6560784,9.61723404 C35.7121067,10.2721026 35.4816186,10.9191617 35.0239216,11.3919149 C34.6024837,11.7692199 33.906841,11.9659574 32.9369935,11.9821277 L27.9445752,12.1559574 C27.9580828,13.6517021 28.2984749,14.7607092 28.9657516,15.4829787 L28.9657516,15.4829787 Z M32.0414379,10.4904255 C32.6844009,10.4419149 33.0058824,10.0713475 33.0058824,9.3787234 C33.0297474,8.75987167 32.8330569,8.15259832 32.450719,7.66468085 C32.0641248,7.20486225 31.4832022,6.95328456 30.8824837,6.98553191 C30.1449438,7.0182474 29.4647856,7.39188413 29.0427451,7.99617021 C28.4301129,8.83089753 28.0739191,9.82528243 28.0175163,10.8582979 L32.0414379,10.4904255 Z" id="Shape" fill="#F5F5F5"></path>
                <path d="M47.1969935,9.49191489 L47.1969935,15.7538298 C47.1969935,16.6755319 47.608976,17.214539 48.4329412,17.3708511 C48.0656888,18.0730486 47.3211677,18.4965642 46.528366,18.4542553 C45.4234423,18.4542553 44.7885839,17.8384397 44.6237908,16.6068085 C43.725778,17.8110502 42.2941293,18.5009992 40.7903268,18.4542553 C39.8604582,18.4960803 38.9471526,18.1986038 38.2211765,17.6174468 C37.5526134,17.0376844 37.188075,16.1836732 37.2324183,15.3010638 C37.2324183,14.0856028 37.8591721,13.1032624 39.1126797,12.3540426 C40.3661874,11.6048227 42.1951198,11.2005674 44.5994771,11.1412766 L44.5994771,9.41914894 C44.6525658,8.73101391 44.4835894,8.04398287 44.1172549,7.45851064 C43.7555259,7.01962136 43.2019989,6.78425859 42.6341176,6.82787234 C42.0924664,6.7903809 41.5547718,6.94343453 41.1145098,7.26042553 C40.7894788,7.50597149 40.5977082,7.88859143 40.595817,8.29531915 C40.578403,8.65252506 40.7020663,9.00230462 40.9402614,9.26957447 C40.5503726,9.62731013 40.039523,9.82509559 39.5098039,9.82340426 C39.0499303,9.85199368 38.5959921,9.70777466 38.2373856,9.41914894 C37.9243109,9.13146078 37.7563838,8.71932292 37.7794771,8.29531915 C37.7794771,7.48680851 38.2576471,6.79687943 39.2139869,6.22553191 C40.2754061,5.64092146 41.4749126,5.35188833 42.6867974,5.3887234 C43.8711535,5.3317273 45.0355748,5.70839257 45.9610458,6.44787234 C46.7850109,7.14588652 47.1969935,8.16056738 47.1969935,9.49191489 L47.1969935,9.49191489 Z M40.0284967,15.0382979 C40.0284967,16.0893617 40.6052723,16.6148936 41.7588235,16.6148936 C42.8867763,16.6248733 43.9474708,16.0806837 44.5954248,15.1595745 L44.5954248,12.3742553 C43.0285403,12.4578014 41.8749891,12.7407801 41.1347712,13.2231915 C40.4677805,13.5879688 40.0461917,14.2796855 40.0284967,15.0382979 L40.0284967,15.0382979 Z" id="Shape" fill="#F5F5F5"></path>
                <path d="M69.4440523,9.69 L69.4440523,16.4208511 C69.3887554,16.9179621 69.6579056,17.3947595 70.1126797,17.6053191 C69.786087,18.1497285 69.1924731,18.4782077 68.5566013,18.466383 C67.4192593,18.466383 66.8505882,17.7764539 66.8505882,16.3965957 L66.8505882,9.92851064 C66.8505882,8.33304965 66.1589978,7.53531915 64.775817,7.53531915 C63.9749029,7.55993997 63.2155371,7.89662515 62.6605229,8.47319149 C61.9552026,9.16448007 61.4690523,10.0472887 61.2624837,11.0119149 L61.2624837,16.412766 C61.2097987,16.9160971 61.4902181,17.3954276 61.9554248,17.597234 C61.6054832,18.1291632 61.0127892,18.4520877 60.3750327,18.4582979 C59.2538998,18.4582979 58.6933333,17.7683688 58.6933333,16.3885106 L58.6933333,9.92042553 C58.6933333,8.32496454 57.9922876,7.52723404 56.5901961,7.52723404 C55.789282,7.55185486 55.0299162,7.88854005 54.474902,8.46510638 C53.7693892,9.15624953 53.2832051,10.0391196 53.0768627,11.0038298 L53.0768627,16.4046809 C53.0241778,16.908012 53.3045972,17.3873425 53.7698039,17.5891489 C53.4198622,18.1210781 52.8271683,18.4440026 52.1894118,18.4502128 C51.0682789,18.4502128 50.5077124,17.7602837 50.5077124,16.3804255 L50.5077124,7.44234043 C50.5492815,6.93426669 50.2741735,6.45278048 49.8147712,6.22957447 C50.1647129,5.69764529 50.7574069,5.3747208 51.3951634,5.36851064 C52.5162963,5.36851064 53.0768627,6.06652482 53.0768627,7.46255319 L53.0768627,8.27106383 C53.4807191,7.41063711 54.112696,6.67673279 54.9044444,6.1487234 C55.6802096,5.6195516 56.598656,5.33763157 57.5384314,5.34021277 C58.4092128,5.31524672 59.2601911,5.60204877 59.9373856,6.1487234 C60.6088236,6.74975691 61.0404578,7.57219776 61.1530719,8.46510638 C61.529042,7.55167315 62.1642388,6.76766342 62.9806536,6.2093617 C63.8147113,5.63904769 64.8062412,5.34230329 65.8172549,5.36042553 C66.8063529,5.32476484 67.7609874,5.72551716 68.4269281,6.45595745 C69.1050109,7.1970922 69.4440523,8.27510638 69.4440523,9.69 L69.4440523,9.69 Z" id="Shape" fill="#F5F5F5"></path>
                <path d="M87.3673203,0.460851064 C88.4317211,0.983687943 88.9639216,1.55907801 88.9639216,2.18702128 C88.9153259,2.6405931 88.7776275,3.08016953 88.5586928,3.4806383 L81.515817,17.6780851 C81.3130385,18.0786828 80.9976013,18.4116249 80.6081046,18.6361702 C80.2305464,18.8696492 79.7960856,18.9954799 79.3518954,19 L79.0803922,19 C78.6267329,18.9994217 78.1821011,18.8734888 77.795817,18.6361702 C77.4064671,18.4114396 77.0910768,18.078547 76.8881046,17.6780851 L72.1712418,8.33170213 C71.9523072,7.93123336 71.8146088,7.49165693 71.7660131,7.03808511 C71.7660131,6.40744681 72.2982135,5.83205674 73.3626144,5.31191489 C73.7793606,5.06293885 74.2452754,4.90708752 74.7282353,4.85510638 C74.9722014,4.84384639 75.2159849,4.88094437 75.4454902,4.96425532 C75.6258466,5.05158467 75.7828003,5.18044865 75.9033987,5.34021277 C76.071564,5.56601439 76.2206593,5.805346 76.3491503,6.05574468 C76.4828758,6.31851064 79.1411765,12.3055319 79.2141176,12.4510638 L84.2024837,1.53617021 C84.3456645,1.19390071 84.4712854,0.924397163 84.5793464,0.727659574 C84.8196885,0.29213963 85.2726077,0.015508284 85.770719,0 C86.3319024,0.02586442 86.8789959,0.183780261 87.3673203,0.460851064 L87.3673203,0.460851064 Z" id="Shape" fill="#26C6DA"></path>
                <path d="M88.8301961,7.1593617 C91.4052229,4.66024734 95.5065418,4.66024734 98.0815686,7.1593617 C100.331723,9.35427629 100.734011,12.821156 99.0460131,15.4708511 C98.4232141,16.4437626 97.5517961,17.2335502 96.5214379,17.7589362 C95.5665784,18.240853 94.5118007,18.4928377 93.4416993,18.4946809 C92.3621885,18.4902042 91.3003573,18.2208721 90.3498039,17.7104255 C89.3254226,17.1655642 88.4566939,16.3698673 87.8252288,15.3980851 C87.140196,14.3762611 86.7826529,13.1708656 86.8,11.9417021 C86.7460627,10.1286633 87.4874215,8.38231454 88.8301961,7.1593617 L88.8301961,7.1593617 Z M91.8653595,13.6557447 C92.3071061,14.0221183 92.8593477,14.229957 93.4335948,14.2459574 C94.0166615,14.2266565 94.5768074,14.0147958 95.0261438,13.643617 C95.5235189,13.1917628 95.8110068,12.5545292 95.8202211,11.8834981 C95.8294354,11.212467 95.5595527,10.5676165 95.0747712,10.1023404 C94.6163584,9.73088151 94.0444341,9.52690973 93.4538562,9.52425532 C92.8593727,9.52870546 92.2854687,9.74197115 91.8329412,10.1265957 C91.3162678,10.5652123 91.038219,11.2219303 91.083268,11.897234 C91.0391703,12.5758737 91.3314061,13.2329576 91.8653595,13.6557447 L91.8653595,13.6557447 Z" id="Shape" fill="#26C6DA"></path>
                <path d="M108.682353,9.82340426 L107.114118,9.72638298 L107.114118,13.0574468 C107.088972,13.383549 107.160864,13.7098017 107.320784,13.9953191 C107.514912,14.2136861 107.804454,14.3225706 108.094771,14.286383 C108.385637,14.2823626 108.676502,14.2945091 108.966013,14.322766 C109.192701,14.3562124 109.410392,14.4345579 109.606275,14.5531915 C109.976383,14.7634043 110.161438,15.3024113 110.161438,16.1702128 C110.161438,17.1808511 109.935861,17.7993617 109.484706,18.0257447 C109.282949,18.1263344 109.067078,18.1958467 108.844444,18.2319149 C108.575268,18.260249 108.304626,18.2723986 108.033987,18.2682979 C106.359041,18.2682979 105.086623,17.8909929 104.216732,17.136383 C103.346841,16.381773 102.911895,15.1043262 102.911895,13.3040426 L102.911895,9.73851064 C102.584705,9.78835443 102.254118,9.81268342 101.923137,9.8112766 C101.582052,9.81907835 101.256308,9.67001328 101.039739,9.40702128 C100.766986,8.99411034 100.644014,8.50055059 100.691242,8.00829787 C100.674473,7.52680987 100.715284,7.04504392 100.81281,6.57319149 C100.861722,6.33269584 100.978402,6.11111473 101.14915,5.93446809 C101.424009,5.72093229 101.765445,5.61073311 102.113595,5.62319149 L102.924052,5.72021277 L102.924052,3.23404255 C102.919743,2.96405028 102.931923,2.69404683 102.960523,2.42553191 C102.9965,2.21894315 103.07516,2.0220785 103.191503,1.84744681 C103.399521,1.44588652 104.019521,1.24510638 105.051503,1.24510638 C106.145621,1.24510638 106.798039,1.5429078 107.008758,2.13851064 C107.104084,2.53541912 107.14498,2.94339656 107.130327,3.3512766 L107.130327,5.71212766 C107.838126,5.64744681 108.378431,5.61510638 108.751242,5.61510638 C109.021876,5.61134054 109.292498,5.62348926 109.561699,5.65148936 C109.787059,5.69007757 110.003811,5.76808517 110.201961,5.88191489 C110.620697,6.09212766 110.830065,6.7106383 110.830065,7.73744681 C110.830065,8.76425532 110.612593,9.38276596 110.177647,9.59297872 C109.975866,9.69351075 109.760005,9.7630202 109.537386,9.79914894 C109.253134,9.82455857 108.967593,9.8326587 108.682353,9.82340426 L108.682353,9.82340426 Z" id="Shape" fill="#26C6DA"></path>
                <path d="M123.923007,10.4014894 C123.923007,11.3905674 123.677168,12.120922 123.18549,12.5925532 C122.762185,13.0362499 122.178472,13.2924666 121.564575,13.3040426 L115.830588,13.3040426 C115.86382,13.8041028 116.177655,14.2424158 116.641046,14.4359574 C117.121963,14.7262656 117.671556,14.8839114 118.233595,14.892766 C118.976876,14.9190328 119.719305,14.8206445 120.429935,14.6017021 L120.697386,14.5046809 C120.996841,14.349985 121.32528,14.2591241 121.66183,14.2378723 C122.177821,14.2378723 122.620871,14.5990071 122.99098,15.3212766 C123.174503,15.663464 123.280987,16.041472 123.303007,16.4289362 C123.303007,17.86 121.587538,18.5741844 118.156601,18.5714894 C117.066085,18.5916732 115.983551,18.3822985 114.979608,17.9570213 C114.133852,17.6094429 113.3906,17.0529953 112.819739,16.34 C111.828145,15.102141 111.291807,13.5626246 111.300131,11.9780851 C111.300131,9.95411348 111.956601,8.3370922 113.269542,7.12702128 C114.607343,5.90408137 116.37133,5.25124786 118.184967,5.30787234 C120.42183,5.30787234 122.064357,6.0948227 123.112549,7.6687234 C123.648159,8.47941314 123.930247,9.43057896 123.923007,10.4014894 L123.923007,10.4014894 Z M118.825229,11.1129787 C119.435773,11.1129787 119.741046,10.8556028 119.741046,10.3408511 C119.754567,9.99714647 119.604287,9.66732438 119.335817,9.45148936 C118.980975,9.20424779 118.551899,9.08582191 118.120131,9.11595745 C117.540357,9.13636755 116.987005,9.36291173 116.56,9.75468085 C116.106111,10.0662451 115.820775,10.568481 115.786013,11.1170213 L118.829281,11.1170213 L118.825229,11.1129787 Z" id="Shape" fill="#26C6DA"></path>
            </g>
        </g>
    </g>
</svg>